<?xml version="1.0" encoding="UTF-8" standalone="no"?>
<!-- Created with Inkscape (http://www.inkscape.org/) -->

<svg
   width="97mm"
   height="99mm"
   viewBox="0 0 366.61418 374.17324"
   version="1.1"
   id="svg1"
   xml:space="preserve"
   sodipodi:docname="codelayout_cln.svg"
   inkscape:version="1.4 (e7c3feb100, 2024-10-09)"
   xmlns:inkscape="http://www.inkscape.org/namespaces/inkscape"
   xmlns:sodipodi="http://sodipodi.sourceforge.net/DTD/sodipodi-0.dtd"
   xmlns="http://www.w3.org/2000/svg"
   xmlns:svg="http://www.w3.org/2000/svg"><sodipodi:namedview
     id="namedview1"
     pagecolor="#ffffff"
     bordercolor="#000000"
     borderopacity="0.25"
     inkscape:showpageshadow="2"
     inkscape:pageopacity="0.0"
     inkscape:pagecheckerboard="0"
     inkscape:deskcolor="#d1d1d1"
     inkscape:document-units="mm"
     showgrid="false"
     inkscape:zoom="0.93957511"
     inkscape:cx="480.0042"
     inkscape:cy="436.89961"
     inkscape:window-width="1920"
     inkscape:window-height="1052"
     inkscape:window-x="0"
     inkscape:window-y="0"
     inkscape:window-maximized="1"
     inkscape:current-layer="layer1"><inkscape:grid
       id="grid1"
       units="mm"
       originx="0"
       originy="0"
       spacingx="1"
       spacingy="1"
       empcolor="#0099e5"
       empopacity="0.30196078"
       color="#0099e5"
       opacity="0.14901961"
       empspacing="5"
       enabled="true"
       visible="false" /></sodipodi:namedview><defs
     id="defs1" /><g
     inkscape:label="Ebene 1"
     inkscape:groupmode="layer"
     id="layer1"><g
       id="g13"
       transform="matrix(0.60894022,0,0,0.60894022,-111.74122,-62.564102)"><path
         sodipodi:type="star"
         style="fill:none;fill-opacity:0.996078;stroke:#05ec17;stroke-width:3.77953;stroke-linecap:round;stroke-linejoin:bevel;stroke-dasharray:none;stroke-opacity:1"
         id="path1-2-8-9"
         inkscape:flatsided="true"
         sodipodi:sides="6"
         sodipodi:cx="410"
         sodipodi:cy="220"
         sodipodi:r1="35"
         sodipodi:r2="30.31089"
         sodipodi:arg1="-1.5707963"
         sodipodi:arg2="-1.0471976"
         inkscape:rounded="0"
         inkscape:randomized="0"
         d="m 410,185 30.31089,17.5 0,35 L 410,255 l -30.31089,-17.5 0,-35 z"
         transform="translate(223.99999,126.00001)" /><path
         sodipodi:type="star"
         style="fill:none;fill-opacity:0.996078;stroke:#05ec17;stroke-width:3.77953;stroke-linecap:round;stroke-linejoin:bevel;stroke-dasharray:none;stroke-opacity:1"
         id="path1-2-1"
         inkscape:flatsided="true"
         sodipodi:sides="6"
         sodipodi:cx="410"
         sodipodi:cy="220"
         sodipodi:r1="35"
         sodipodi:r2="30.31089"
         sodipodi:arg1="-1.5707963"
         sodipodi:arg2="-1.0471976"
         inkscape:rounded="0"
         inkscape:randomized="0"
         d="m 410,185 30.31089,17.5 0,35 L 410,255 l -30.31089,-17.5 0,-35 z"
         transform="translate(186.99999,61.000004)" /><path
         sodipodi:type="star"
         style="fill:none;fill-opacity:0.996078;stroke:#05ec17;stroke-width:3.77953;stroke-linecap:round;stroke-linejoin:bevel;stroke-dasharray:none;stroke-opacity:1"
         id="path1-2-4"
         inkscape:flatsided="true"
         sodipodi:sides="6"
         sodipodi:cx="410"
         sodipodi:cy="220"
         sodipodi:r1="35"
         sodipodi:r2="30.31089"
         sodipodi:arg1="-1.5707963"
         sodipodi:arg2="-1.0471976"
         inkscape:rounded="0"
         inkscape:randomized="0"
         d="m 410,185 30.31089,17.5 0,35 L 410,255 l -30.31089,-17.5 0,-35 z"
         transform="translate(111.99999,61.000004)" /><path
         sodipodi:type="star"
         style="fill:none;fill-opacity:0.996078;stroke:#05ec17;stroke-width:3.77953;stroke-linecap:round;stroke-linejoin:bevel;stroke-dasharray:none;stroke-opacity:1"
         id="path1"
         inkscape:flatsided="true"
         sodipodi:sides="6"
         sodipodi:cx="410"
         sodipodi:cy="220"
         sodipodi:r1="35"
         sodipodi:r2="30.31089"
         sodipodi:arg1="-1.5707963"
         sodipodi:arg2="-1.0471976"
         inkscape:rounded="0"
         inkscape:randomized="0"
         d="m 410,185 30.31089,17.5 0,35 L 410,255 l -30.31089,-17.5 0,-35 z"
         transform="translate(-0.39490772,-2.4999972)" /><path
         sodipodi:type="star"
         style="fill:#05ec17;fill-opacity:1;stroke:#05ec17;stroke-width:3.77953;stroke-linecap:round;stroke-linejoin:bevel;stroke-dasharray:none;stroke-opacity:1"
         id="path1-2"
         inkscape:flatsided="true"
         sodipodi:sides="6"
         sodipodi:cx="410"
         sodipodi:cy="220"
         sodipodi:r1="35"
         sodipodi:r2="30.31089"
         sodipodi:arg1="-1.5707963"
         sodipodi:arg2="-1.0471976"
         inkscape:rounded="0"
         inkscape:randomized="0"
         d="m 410,185 30.31089,17.5 0,35 L 410,255 l -30.31089,-17.5 0,-35 z"
         transform="translate(-37.000008,61.000004)" /><path
         sodipodi:type="star"
         style="fill:#05ec17;fill-opacity:1;stroke:#05ec17;stroke-width:3.77953;stroke-linecap:round;stroke-linejoin:bevel;stroke-dasharray:none;stroke-opacity:1"
         id="path1-2-8"
         inkscape:flatsided="true"
         sodipodi:sides="6"
         sodipodi:cx="410"
         sodipodi:cy="220"
         sodipodi:r1="35"
         sodipodi:r2="30.31089"
         sodipodi:arg1="-1.5707963"
         sodipodi:arg2="-1.0471976"
         inkscape:rounded="0"
         inkscape:randomized="0"
         d="m 410,185 30.31089,17.5 0,35 L 410,255 l -30.31089,-17.5 0,-35 z"
         transform="translate(-75.000007,126.00001)" /><path
         sodipodi:type="star"
         style="fill:none;fill-opacity:0.996078;stroke:#05ec17;stroke-width:3.77953;stroke-linecap:round;stroke-linejoin:bevel;stroke-dasharray:none;stroke-opacity:1"
         id="path1-2-8-7"
         inkscape:flatsided="true"
         sodipodi:sides="6"
         sodipodi:cx="410"
         sodipodi:cy="220"
         sodipodi:r1="35"
         sodipodi:r2="30.31089"
         sodipodi:arg1="-1.5707963"
         sodipodi:arg2="-1.0471976"
         inkscape:rounded="0"
         inkscape:randomized="0"
         d="m 410,185 30.31089,17.5 0,35 L 410,255 l -30.31089,-17.5 0,-35 z"
         transform="translate(148.99999,126.00001)" /><path
         sodipodi:type="star"
         style="fill:none;fill-opacity:0.996078;stroke:#05ec17;stroke-width:3.77953;stroke-linecap:round;stroke-linejoin:bevel;stroke-dasharray:none;stroke-opacity:1"
         id="path1-2-8-2"
         inkscape:flatsided="true"
         sodipodi:sides="6"
         sodipodi:cx="410"
         sodipodi:cy="220"
         sodipodi:r1="35"
         sodipodi:r2="30.31089"
         sodipodi:arg1="-1.5707963"
         sodipodi:arg2="-1.0471976"
         inkscape:rounded="0"
         inkscape:randomized="0"
         d="m 410,185 30.31089,17.5 0,35 L 410,255 l -30.31089,-17.5 0,-35 z"
         transform="translate(-8.3427836e-6,126.00001)" /><path
         sodipodi:type="star"
         style="fill:none;fill-opacity:0.996078;stroke:#05ec17;stroke-width:3.77953;stroke-linecap:round;stroke-linejoin:bevel;stroke-dasharray:none;stroke-opacity:1"
         id="path1-2-8-6"
         inkscape:flatsided="true"
         sodipodi:sides="6"
         sodipodi:cx="410"
         sodipodi:cy="220"
         sodipodi:r1="35"
         sodipodi:r2="30.31089"
         sodipodi:arg1="-1.5707963"
         sodipodi:arg2="-1.0471976"
         inkscape:rounded="0"
         inkscape:randomized="0"
         d="m 410,185 30.31089,17.5 0,35 L 410,255 l -30.31089,-17.5 0,-35 z"
         transform="translate(74.678761,126.00001)" /><path
         sodipodi:type="star"
         style="fill:none;fill-opacity:0.996078;stroke:#05ec17;stroke-width:3.77953;stroke-linecap:round;stroke-linejoin:bevel;stroke-dasharray:none;stroke-opacity:1"
         id="path1-2-7"
         inkscape:flatsided="true"
         sodipodi:sides="6"
         sodipodi:cx="410"
         sodipodi:cy="220"
         sodipodi:r1="35"
         sodipodi:r2="30.31089"
         sodipodi:arg1="-1.5707963"
         sodipodi:arg2="-1.0471976"
         inkscape:rounded="0"
         inkscape:randomized="0"
         d="m 410,185 30.31089,17.5 0,35 L 410,255 l -30.31089,-17.5 0,-35 z"
         transform="translate(37.462831,61.000004)" /><path
         sodipodi:type="star"
         style="fill:none;fill-opacity:0.996078;stroke:#05ec17;stroke-width:3.77953;stroke-linecap:round;stroke-linejoin:bevel;stroke-dasharray:none;stroke-opacity:1"
         id="path1-4"
         inkscape:flatsided="true"
         sodipodi:sides="6"
         sodipodi:cx="410"
         sodipodi:cy="220"
         sodipodi:r1="35"
         sodipodi:r2="30.31089"
         sodipodi:arg1="-1.5707963"
         sodipodi:arg2="-1.0471976"
         inkscape:rounded="0"
         inkscape:randomized="0"
         d="m 410,185 30.31089,17.5 0,35 L 410,255 l -30.31089,-17.5 0,-35 z"
         transform="translate(149.99999,-3.3634122)" /><path
         sodipodi:type="star"
         style="fill:none;fill-opacity:0.996078;stroke:#05ec17;stroke-width:3.77953;stroke-linecap:round;stroke-linejoin:bevel;stroke-dasharray:none;stroke-opacity:1"
         id="path1-8"
         inkscape:flatsided="true"
         sodipodi:sides="6"
         sodipodi:cx="410"
         sodipodi:cy="220"
         sodipodi:r1="35"
         sodipodi:r2="30.31089"
         sodipodi:arg1="-1.5707963"
         sodipodi:arg2="-1.0471976"
         inkscape:rounded="0"
         inkscape:randomized="0"
         d="m 410,185 30.31089,17.5 0,35 L 410,255 l -30.31089,-17.5 0,-35 z"
         transform="translate(74.689101,-2.4999972)" /><path
         sodipodi:type="star"
         style="fill:none;fill-opacity:0.996078;stroke:#05ec17;stroke-width:3.77953;stroke-linecap:round;stroke-linejoin:bevel;stroke-dasharray:none;stroke-opacity:1"
         id="path1-3"
         inkscape:flatsided="true"
         sodipodi:sides="6"
         sodipodi:cx="410"
         sodipodi:cy="220"
         sodipodi:r1="35"
         sodipodi:r2="30.31089"
         sodipodi:arg1="-1.5707963"
         sodipodi:arg2="-1.0471976"
         inkscape:rounded="0"
         inkscape:randomized="0"
         d="m 410,185 30.31089,17.5 0,35 L 410,255 l -30.31089,-17.5 0,-35 z"
         transform="translate(-8.342787e-6,255.00001)" /><path
         sodipodi:type="star"
         style="fill:none;fill-opacity:0.996078;stroke:#05ec17;stroke-width:3.77953;stroke-linecap:round;stroke-linejoin:bevel;stroke-dasharray:none;stroke-opacity:1"
         id="path1-4-8"
         inkscape:flatsided="true"
         sodipodi:sides="6"
         sodipodi:cx="410"
         sodipodi:cy="220"
         sodipodi:r1="35"
         sodipodi:r2="30.31089"
         sodipodi:arg1="-1.5707963"
         sodipodi:arg2="-1.0471976"
         inkscape:rounded="0"
         inkscape:randomized="0"
         d="m 410,185 30.31089,17.5 0,35 L 410,255 l -30.31089,-17.5 0,-35 z"
         transform="translate(149.99999,255.00001)" /><path
         sodipodi:type="star"
         style="fill:none;fill-opacity:0.996078;stroke:#05ec17;stroke-width:3.77953;stroke-linecap:round;stroke-linejoin:bevel;stroke-dasharray:none;stroke-opacity:1"
         id="path1-8-0"
         inkscape:flatsided="true"
         sodipodi:sides="6"
         sodipodi:cx="410"
         sodipodi:cy="220"
         sodipodi:r1="35"
         sodipodi:r2="30.31089"
         sodipodi:arg1="-1.5707963"
         sodipodi:arg2="-1.0471976"
         inkscape:rounded="0"
         inkscape:randomized="0"
         d="m 410,185 30.31089,17.5 0,35 L 410,255 l -30.31089,-17.5 0,-35 z"
         transform="translate(74.99999,255.00001)" /><path
         sodipodi:type="star"
         style="fill:none;fill-opacity:0.996078;stroke:#05ec17;stroke-width:3.77953;stroke-linecap:round;stroke-linejoin:bevel;stroke-dasharray:none;stroke-opacity:1"
         id="path1-2-1-2"
         inkscape:flatsided="true"
         sodipodi:sides="6"
         sodipodi:cx="410"
         sodipodi:cy="220"
         sodipodi:r1="35"
         sodipodi:r2="30.31089"
         sodipodi:arg1="-1.5707963"
         sodipodi:arg2="-1.0471976"
         inkscape:rounded="0"
         inkscape:randomized="0"
         d="m 410,185 30.31089,17.5 0,35 L 410,255 l -30.31089,-17.5 0,-35 z"
         transform="translate(186.99999,191.00001)" /><path
         sodipodi:type="star"
         style="fill:none;fill-opacity:0.996078;stroke:#05ec17;stroke-width:3.77953;stroke-linecap:round;stroke-linejoin:bevel;stroke-dasharray:none;stroke-opacity:1"
         id="path1-2-4-1"
         inkscape:flatsided="true"
         sodipodi:sides="6"
         sodipodi:cx="410"
         sodipodi:cy="220"
         sodipodi:r1="35"
         sodipodi:r2="30.31089"
         sodipodi:arg1="-1.5707963"
         sodipodi:arg2="-1.0471976"
         inkscape:rounded="0"
         inkscape:randomized="0"
         d="m 410,185 30.31089,17.5 0,35 L 410,255 l -30.31089,-17.5 0,-35 z"
         transform="translate(111.99999,191.00001)" /><path
         sodipodi:type="star"
         style="fill:none;fill-opacity:0.996078;stroke:#05ec17;stroke-width:3.77953;stroke-linecap:round;stroke-linejoin:bevel;stroke-dasharray:none;stroke-opacity:1"
         id="path1-2-9"
         inkscape:flatsided="true"
         sodipodi:sides="6"
         sodipodi:cx="410"
         sodipodi:cy="220"
         sodipodi:r1="35"
         sodipodi:r2="30.31089"
         sodipodi:arg1="-1.5707963"
         sodipodi:arg2="-1.0471976"
         inkscape:rounded="0"
         inkscape:randomized="0"
         d="m 410,185 30.31089,17.5 0,35 L 410,255 l -30.31089,-17.5 0,-35 z"
         transform="translate(-37.000012,191.00001)" /><path
         sodipodi:type="star"
         style="fill:none;fill-opacity:0.996078;stroke:#05ec17;stroke-width:3.77953;stroke-linecap:round;stroke-linejoin:bevel;stroke-dasharray:none;stroke-opacity:1"
         id="path1-2-9-6"
         inkscape:flatsided="true"
         sodipodi:sides="6"
         sodipodi:cx="410"
         sodipodi:cy="220"
         sodipodi:r1="35"
         sodipodi:r2="30.31089"
         sodipodi:arg1="-1.5707963"
         sodipodi:arg2="-1.0471976"
         inkscape:rounded="0"
         inkscape:randomized="0"
         d="m 410,185 30.31089,17.5 0,35 L 410,255 l -30.31089,-17.5 0,-35 z"
         transform="translate(-37.000012,191.00001)" /><path
         sodipodi:type="star"
         style="fill:none;fill-opacity:0.996078;stroke:#05ec17;stroke-width:3.77953;stroke-linecap:round;stroke-linejoin:bevel;stroke-dasharray:none;stroke-opacity:1"
         id="path1-2-9-6-3"
         inkscape:flatsided="true"
         sodipodi:sides="6"
         sodipodi:cx="410"
         sodipodi:cy="220"
         sodipodi:r1="35"
         sodipodi:r2="30.31089"
         sodipodi:arg1="-1.5707963"
         sodipodi:arg2="-1.0471976"
         inkscape:rounded="0"
         inkscape:randomized="0"
         d="m 410,185 30.31089,17.5 0,35 L 410,255 l -30.31089,-17.5 0,-35 z"
         transform="matrix(0.80218996,0,0,0.80218996,43.987067,234.51822)" /><path
         sodipodi:type="star"
         style="fill:none;fill-opacity:0.996078;stroke:#05ec17;stroke-width:3.77953;stroke-linecap:round;stroke-linejoin:bevel;stroke-dasharray:none;stroke-opacity:1"
         id="path1-2-9-6-3-5"
         inkscape:flatsided="true"
         sodipodi:sides="6"
         sodipodi:cx="410"
         sodipodi:cy="220"
         sodipodi:r1="35"
         sodipodi:r2="30.31089"
         sodipodi:arg1="-1.5707963"
         sodipodi:arg2="-1.0471976"
         inkscape:rounded="0"
         inkscape:randomized="0"
         d="m 410,185 30.31089,17.5 0,35 L 410,255 l -30.31089,-17.5 0,-35 z"
         transform="matrix(0.80218996,0,0,0.80218996,155.78088,169.51822)" /><path
         sodipodi:type="star"
         style="fill:none;fill-opacity:0.996078;stroke:#05ec17;stroke-width:3.77953;stroke-linecap:round;stroke-linejoin:bevel;stroke-dasharray:none;stroke-opacity:1"
         id="path1-2-7-6"
         inkscape:flatsided="true"
         sodipodi:sides="6"
         sodipodi:cx="410"
         sodipodi:cy="220"
         sodipodi:r1="35"
         sodipodi:r2="30.31089"
         sodipodi:arg1="-1.5707963"
         sodipodi:arg2="-1.0471976"
         inkscape:rounded="0"
         inkscape:randomized="0"
         d="m 410,185 30.31089,17.5 0,35 L 410,255 l -30.31089,-17.5 0,-35 z"
         transform="translate(37.462827,191.00001)" /><rect
         style="fill:#05ec17;fill-opacity:1;stroke:#05ec17;stroke-width:3.77953;stroke-linecap:round;stroke-linejoin:bevel;stroke-dasharray:none;stroke-opacity:1"
         id="rect1"
         width="1.4067319e-06"
         height="52.5"
         x="394.44965"
         y="191.25"
         ry="7.0336597e-07" /><rect
         style="fill:#05ec17;fill-opacity:1;stroke:#05ec17;stroke-width:3.77953;stroke-linecap:round;stroke-linejoin:bevel;stroke-dasharray:none;stroke-opacity:1"
         id="rect2"
         width="1.8756427e-06"
         height="70"
         x="409.60507"
         y="182.5"
         ry="7.0336597e-07" /><path
         style="fill:#05ec17;fill-opacity:1;stroke:#05ec17;stroke-width:3.77953;stroke-linecap:round;stroke-linejoin:bevel;stroke-dasharray:none;stroke-opacity:1"
         d="m 348.56986,396.96169 24.3151,-14.03833 -10e-6,56.1533 -24.31509,-14.03833 z"
         id="path2"
         sodipodi:nodetypes="ccccc" /><path
         style="fill:#05ec17;fill-opacity:1;stroke:#05ec17;stroke-width:3.77953;stroke-linecap:round;stroke-linejoin:bevel;stroke-dasharray:none;stroke-opacity:1"
         d="m 417.15194,263.50001 60.62178,35 -30.31089,17.5 -30.31089,-17.5 z"
         id="path3" /><path
         style="fill:#05ec17;fill-opacity:1;stroke:#05ec17;stroke-width:3.77953;stroke-linecap:round;stroke-linejoin:bevel;stroke-dasharray:none;stroke-opacity:1"
         d="m 409.99999,440.00001 -30.31089,17.5 v 35 l 30.31089,17.5 z"
         id="path4" /><path
         style="fill:#05ec17;fill-opacity:1;stroke:#05ec17;stroke-width:3.77953;stroke-linecap:round;stroke-linejoin:bevel;stroke-dasharray:none;stroke-opacity:1"
         d="m 409.99999,440.00001 -30.31089,17.5 v 35 l 30.31089,17.5 z"
         id="path5" /><path
         style="fill:#05ec17;fill-opacity:1;stroke:#05ec17;stroke-width:3.77953;stroke-linecap:round;stroke-linejoin:bevel;stroke-dasharray:none;stroke-opacity:1"
         d="m 417.15194,428.50001 v -35 l 30.31089,-17.5 30.31089,17.5 z"
         id="path6" /><path
         style="fill:#05ec17;fill-opacity:1;stroke:#05ec17;stroke-width:3.77953;stroke-linecap:round;stroke-linejoin:bevel;stroke-dasharray:none;stroke-opacity:1"
         d="m 460.36367,331.96169 24.31509,-14.03832 24.31509,14.03832 v 28.07665 z"
         id="path7" /><path
         style="fill:#05ec17;fill-opacity:1;stroke:#05ec17;stroke-width:3.77953;stroke-linecap:round;stroke-linejoin:bevel;stroke-dasharray:none;stroke-opacity:1"
         d="m 529.6891,199.13658 60.62177,35.00001 10e-6,-35.00001 -30.31089,-17.5 z"
         id="path8" /><path
         style="fill:#05ec17;fill-opacity:1;stroke:#05ec17;stroke-width:3.77953;stroke-linecap:round;stroke-linejoin:bevel;stroke-dasharray:none;stroke-opacity:1"
         d="m 454.6891,457.50001 v 35 l 30.31089,17.5 30.31089,-17.5 z"
         id="path9" /><rect
         style="fill:#05ec17;fill-opacity:1;stroke:#05ec17;stroke-width:3.77953;stroke-linecap:round;stroke-linejoin:bevel;stroke-dasharray:none;stroke-opacity:1"
         id="rect9"
         width="60.621777"
         height="1.6243542e-06"
         x="566.68909"
         y="393.5"
         ry="7.0336597e-07" /><rect
         style="fill:#05ec17;fill-opacity:1;stroke:#05ec17;stroke-width:3.77953;stroke-linecap:round;stroke-linejoin:bevel;stroke-dasharray:none;stroke-opacity:1"
         id="rect10"
         width="60.621777"
         height="1.6243542e-06"
         x="566.68909"
         y="411"
         ry="7.0336597e-07" /><rect
         style="fill:#05ec17;fill-opacity:1;stroke:#05ec17;stroke-width:3.77953;stroke-linecap:round;stroke-linejoin:bevel;stroke-dasharray:none;stroke-opacity:1"
         id="rect11"
         width="60.621777"
         height="1.6243541e-06"
         x="566.68909"
         y="428.5"
         ry="7.0336597e-07" /><g
         id="text11"
         style="font-size:32px;font-family:Didonesque;-inkscape-font-specification:Didonesque;letter-spacing:0px;fill:#05ec17;stroke:#05ec17;stroke-width:3.77953;stroke-linecap:round;stroke-linejoin:bevel"
         aria-label="ARANDALE::LUNA::MERIDIEM::BURJ::&#10;WINDWARD::ORIN::NIGHTSEA::EONS"><path
           style="stroke:none"
           d="m 217.98364,598.92751 -7.936,-22.4 h -1.28 l -7.744,22.4 h -1.856 v 0.512 h 5.536 v -0.512 h -2.976 l 2.464,-7.168 h 7.264 l 2.464,7.168 h -2.496 v 0.512 h 9.056 v -0.512 z m -13.568,-7.808 3.424,-9.92 3.392,9.92 z m 37.60003,7.616 c -0.224,0.416 -0.64,0.672 -1.088,0.672 -1.728,0 -2.08,-4.672 -2.464,-6.848 -0.64,-3.616 -2.08,-4.096 -4.576,-4.256 v -0.064 c 2.688,-0.384 5.088,-1.952 5.088,-5.632 0,-4.16 -3.072,-5.696 -6.72,-5.696 -1.056,0 -3.808,0.128 -5.44,0.128 h -5.28 v 0.512 h 2.976 v 21.376 h -2.976 v 0.512 h 9.664 v -0.512 h -2.976 v -10.048 h 3.264 c 2.272,0 2.72,2.336 3.296,5.44 0.576,3.104 1.248,5.632 4.992,5.632 1.408,0 2.144,-0.352 2.56,-1.024 z m -9.824,-10.496 h -3.968 v -10.752 c 0.864,-0.032 2.976,-0.064 3.392,-0.064 2.4,0 3.52,1.248 3.52,5.696 0,4.288 -1.216,5.12 -2.944,5.12 z m 29.28001,10.688 -7.936,-22.4 h -1.28 l -7.744,22.4 h -1.856 v 0.512 h 5.536 v -0.512 h -2.976 l 2.464,-7.168 h 7.264 l 2.464,7.168 h -2.496 v 0.512 h 9.056 v -0.512 z m -13.568,-7.808 3.424,-9.92 3.392,9.92 z m 32.67202,-14.08 v 0.512 h 2.976 v 15.616 h -0.128 l -12.32,-16.128 h -6.08 v 0.512 h 2.976 v 21.376 h -2.976 v 0.512 h 6.72 v -0.512 h -2.976 v -18.624 h 0.128 l 14.656,19.392 h 0.768 v -22.144 h 2.976 v -0.512 z m 17.88801,-0.128 c -1.408,0 -2.912,0.128 -4.608,0.128 h -5.28 v 0.512 h 2.976 v 21.376 h -2.976 v 0.512 h 5.28 c 1.696,0 3.136,0.128 4.544,0.128 8.8,0 11.872,-4.832 11.872,-11.36 0,-7.648 -4.224,-11.296 -11.808,-11.296 z m -0.608,22.144 c -0.832,0 -1.728,-0.032 -2.592,-0.064 v -21.504 c 0.864,-0.032 1.856,-0.064 2.624,-0.064 4.992,0 8.224,1.344 8.224,11.136 0,9.088 -2.784,10.496 -8.256,10.496 z m 31.55194,-0.128 -7.936,-22.4 h -1.28 l -7.744,22.4 h -1.856 v 0.512 h 5.536 v -0.512 h -2.976 l 2.464,-7.168 h 7.264 l 2.464,7.168 h -2.496 v 0.512 h 9.056 v -0.512 z m -13.568,-7.808 3.424,-9.92 3.392,9.92 z m 35.04003,1.28 c -0.128,3.2 -1.12,6.528 -5.76,6.528 h -5.472 v -21.376 h 2.976 v -0.512 h -9.664 v 0.512 h 2.976 v 21.376 h -2.976 v 0.512 h 18.304 v -7.04 z m 20.35201,0 c -0.128,3.2 -1.12,6.528 -6.08,6.528 h -5.184 v -10.688 h 3.072 c 2.272,0 2.816,2.368 3.136,4.704 h 0.384 v -10.016 h -0.384 c -0.32,2.336 -0.896,4.672 -3.136,4.672 h -3.072 v -10.048 h 4.32 c 4.96,0 5.952,2.592 6.08,4.416 h 0.384 v -4.928 h -17.472 v 0.512 h 2.976 v 21.376 h -2.976 v 0.512 h 18.336 v -7.04 z m 5.63198,-6.592 c -1.056,0 -1.952,0.864 -1.952,1.984 0,1.12 0.896,1.952 1.952,1.952 1.056,0 1.984,-0.832 1.984,-1.952 0,-1.12 -0.928,-1.984 -1.984,-1.984 z m 0,9.952 c -1.056,0 -1.952,0.864 -1.952,1.984 0,1.12 0.896,1.952 1.952,1.952 1.056,0 1.984,-0.832 1.984,-1.952 0,-1.12 -0.928,-1.984 -1.984,-1.984 z m 8.15997,-9.952 c -1.056,0 -1.952,0.864 -1.952,1.984 0,1.12 0.896,1.952 1.952,1.952 1.056,0 1.984,-0.832 1.984,-1.952 0,-1.12 -0.928,-1.984 -1.984,-1.984 z m 0,9.952 c -1.056,0 -1.952,0.864 -1.952,1.984 0,1.12 0.896,1.952 1.952,1.952 1.056,0 1.984,-0.832 1.984,-1.952 0,-1.12 -0.928,-1.984 -1.984,-1.984 z m 22.75197,-3.36 c -0.128,3.2 -1.12,6.528 -5.76,6.528 h -5.472 v -21.376 h 2.976 v -0.512 h -9.664 v 0.512 h 2.976 v 21.376 h -2.976 v 0.512 h 18.304 v -7.04 z m 18.08,-15.36 v 0.512 h 2.976 v 15.072 c 0,4.192 -2.336,6.688 -6.304,6.688 -3.392,0 -6.304,-1.792 -6.304,-7.232 v -14.528 h 2.976 v -0.512 h -9.664 v 0.512 h 2.976 v 13.856 c 0,6.304 4.864,8.544 9.44,8.544 6.112,0 7.648,-4.064 7.648,-7.872 v -14.528 h 2.976 v -0.512 z m 23.74402,0 v 0.512 h 2.976 v 15.616 h -0.128 l -12.32,-16.128 h -6.08 v 0.512 h 2.976 v 21.376 h -2.976 v 0.512 h 6.72 v -0.512 h -2.976 v -18.624 h 0.128 l 14.656,19.392 h 0.768 v -22.144 h 2.976 v -0.512 z m 24.80003,21.888 -7.936,-22.4 h -1.28 l -7.744,22.4 h -1.856 v 0.512 h 5.536 v -0.512 h -2.976 l 2.464,-7.168 h 7.264 l 2.464,7.168 h -2.496 v 0.512 h 9.056 v -0.512 z m -13.568,-7.808 3.424,-9.92 3.392,9.92 z m 20.44802,-5.312 c -1.056,0 -1.952,0.864 -1.952,1.984 0,1.12 0.896,1.952 1.952,1.952 1.056,0 1.984,-0.832 1.984,-1.952 0,-1.12 -0.928,-1.984 -1.984,-1.984 z m 0,9.952 c -1.056,0 -1.952,0.864 -1.952,1.984 0,1.12 0.896,1.952 1.952,1.952 1.056,0 1.984,-0.832 1.984,-1.952 0,-1.12 -0.928,-1.984 -1.984,-1.984 z m 8.15998,-9.952 c -1.056,0 -1.952,0.864 -1.952,1.984 0,1.12 0.896,1.952 1.952,1.952 1.056,0 1.984,-0.832 1.984,-1.952 0,-1.12 -0.928,-1.984 -1.984,-1.984 z m 0,9.952 c -1.056,0 -1.952,0.864 -1.952,1.984 0,1.12 0.896,1.952 1.952,1.952 1.056,0 1.984,-0.832 1.984,-1.952 0,-1.12 -0.928,-1.984 -1.984,-1.984 z m 31.83997,-18.208 v -0.512 h -6.944 l -6.368,16.768 -6.336,-16.768 h -7.36 v 0.512 h 2.976 v 21.376 h -2.976 v 0.512 h 6.72 v -0.512 h -2.976 v -20.416 h 0.128 l 7.84,20.928 h 0.576 l 7.904,-20.928 h 0.128 v 20.416 h -2.976 v 0.512 h 9.664 v -0.512 h -2.976 v -21.376 z m 19.42398,14.848 c -0.128,3.2 -1.12,6.528 -6.08,6.528 h -5.184 v -10.688 h 3.072 c 2.272,0 2.816,2.368 3.136,4.704 h 0.384 v -10.016 h -0.384 c -0.32,2.336 -0.896,4.672 -3.136,4.672 h -3.072 v -10.048 h 4.32 c 4.96,0 5.952,2.592 6.08,4.416 h 0.384 v -4.928 h -17.472 v 0.512 h 2.976 v 21.376 h -2.976 v 0.512 h 18.336 v -7.04 z m 22.78398,6.336 c -0.224,0.416 -0.64,0.672 -1.088,0.672 -1.728,0 -2.08,-4.672 -2.464,-6.848 -0.64,-3.616 -2.08,-4.096 -4.576,-4.256 v -0.064 c 2.688,-0.384 5.088,-1.952 5.088,-5.632 0,-4.16 -3.072,-5.696 -6.72,-5.696 -1.056,0 -3.808,0.128 -5.44,0.128 h -5.28 v 0.512 h 2.976 v 21.376 h -2.976 v 0.512 h 9.664 v -0.512 h -2.976 v -10.048 h 3.264 c 2.272,0 2.72,2.336 3.296,5.44 0.576,3.104 1.248,5.632 4.992,5.632 1.408,0 2.144,-0.352 2.56,-1.024 z m -9.824,-10.496 h -3.968 v -10.752 c 0.864,-0.032 2.976,-0.064 3.392,-0.064 2.4,0 3.52,1.248 3.52,5.696 0,4.288 -1.216,5.12 -2.944,5.12 z m 10.88001,-11.2 v 0.512 h 2.976 v 21.376 h -2.976 v 0.512 h 9.664 v -0.512 h -2.976 v -21.376 h 2.976 v -0.512 z m 21.02399,-0.128 c -1.408,0 -2.912,0.128 -4.608,0.128 h -5.28 v 0.512 h 2.976 v 21.376 h -2.976 v 0.512 h 5.28 c 1.696,0 3.136,0.128 4.544,0.128 8.8,0 11.872,-4.832 11.872,-11.36 0,-7.648 -4.224,-11.296 -11.808,-11.296 z m -0.608,22.144 c -0.832,0 -1.728,-0.032 -2.592,-0.064 v -21.504 c 0.864,-0.032 1.856,-0.064 2.624,-0.064 4.992,0 8.224,1.344 8.224,11.136 0,9.088 -2.784,10.496 -8.256,10.496 z m 13.88797,-22.016 v 0.512 h 2.976 v 21.376 h -2.976 v 0.512 h 9.664 v -0.512 h -2.976 v -21.376 h 2.976 v -0.512 z m 29.08798,15.36 c -0.128,3.2 -1.12,6.528 -6.08,6.528 h -5.184 v -10.688 h 3.072 c 2.272,0 2.816,2.368 3.136,4.704 h 0.384 v -10.016 h -0.384 c -0.32,2.336 -0.896,4.672 -3.136,4.672 h -3.072 v -10.048 h 4.32 c 4.96,0 5.952,2.592 6.08,4.416 h 0.384 v -4.928 h -17.472 v 0.512 h 2.976 v 21.376 h -2.976 v 0.512 h 18.336 v -7.04 z m 29.31198,-14.848 v -0.512 h -6.944 l -6.368,16.768 -6.336,-16.768 h -7.36 v 0.512 h 2.976 v 21.376 h -2.976 v 0.512 h 6.72 v -0.512 h -2.976 v -20.416 h 0.128 l 7.84,20.928 h 0.576 l 7.904,-20.928 h 0.128 v 20.416 h -2.976 v 0.512 h 9.664 v -0.512 h -2.976 v -21.376 z m 4.79999,8.256 c -1.056,0 -1.952,0.864 -1.952,1.984 0,1.12 0.896,1.952 1.952,1.952 1.056,0 1.984,-0.832 1.984,-1.952 0,-1.12 -0.928,-1.984 -1.984,-1.984 z m 0,9.952 c -1.056,0 -1.952,0.864 -1.952,1.984 0,1.12 0.896,1.952 1.952,1.952 1.056,0 1.984,-0.832 1.984,-1.952 0,-1.12 -0.928,-1.984 -1.984,-1.984 z m 8.15997,-9.952 c -1.056,0 -1.952,0.864 -1.952,1.984 0,1.12 0.896,1.952 1.952,1.952 1.056,0 1.984,-0.832 1.984,-1.952 0,-1.12 -0.928,-1.984 -1.984,-1.984 z m 0,9.952 c -1.056,0 -1.952,0.864 -1.952,1.984 0,1.12 0.896,1.952 1.952,1.952 1.056,0 1.984,-0.832 1.984,-1.952 0,-1.12 -0.928,-1.984 -1.984,-1.984 z m 17.37597,-8.576 v -0.064 c 1.44,0 4.8,-1.184 4.8,-5.024 0,-3.168 -2.4,-5.184 -7.456,-5.184 -1.408,0 -2.944,0.128 -4.608,0.128 h -5.28 v 0.512 h 2.976 v 21.376 h -2.976 v 0.512 h 5.28 c 1.728,0 3.104,0.128 4.576,0.128 6.304,0 8.672,-2.912 8.672,-6.368 0,-4.864 -4.576,-6.016 -5.984,-6.016 z m -3.424,-9.76 c 3.072,0 4.576,1.376 4.576,4.992 0,3.616 -1.408,4.704 -4.128,4.704 h -2.88 v -9.632 c 0.864,-0.032 1.92,-0.064 2.432,-0.064 z m -0.032,21.632 c -0.544,0 -1.536,-0.032 -2.4,-0.064 v -11.232 h 2.56 c 4.192,0 5.12,1.312 5.12,5.664 0,4.288 -1.152,5.632 -5.28,5.632 z m 27.35999,-22.016 v 0.512 h 2.976 v 15.072 c 0,4.192 -2.336,6.688 -6.304,6.688 -3.392,0 -6.304,-1.792 -6.304,-7.232 v -14.528 h 2.976 v -0.512 h -9.664 v 0.512 h 2.976 v 13.856 c 0,6.304 4.864,8.544 9.44,8.544 6.112,0 7.648,-4.064 7.648,-7.872 v -14.528 h 2.976 v -0.512 z m 28.67203,21.696 c -0.224,0.416 -0.64,0.672 -1.088,0.672 -1.728,0 -2.08,-4.672 -2.464,-6.848 -0.64,-3.616 -2.08,-4.096 -4.576,-4.256 v -0.064 c 2.688,-0.384 5.088,-1.952 5.088,-5.632 0,-4.16 -3.072,-5.696 -6.72,-5.696 -1.056,0 -3.808,0.128 -5.44,0.128 h -5.28 v 0.512 h 2.976 v 21.376 h -2.976 v 0.512 h 9.664 v -0.512 h -2.976 v -10.048 h 3.264 c 2.272,0 2.72,2.336 3.296,5.44 0.576,3.104 1.248,5.632 4.992,5.632 1.408,0 2.144,-0.352 2.56,-1.024 z m -9.824,-10.496 h -3.968 v -10.752 c 0.864,-0.032 2.976,-0.064 3.392,-0.064 2.4,0 3.52,1.248 3.52,5.696 0,4.288 -1.216,5.12 -2.944,5.12 z m 14.94401,-10.688 h 2.976 v 19.872 c 0,0.672 -0.16,1.184 -0.512,1.504 -0.384,0.352 -0.96,0.512 -1.856,0.512 -1.568,0 -2.144,-0.544 -2.144,-1.28 0,-1.152 1.408,-1.056 1.408,-2.4 0,-1.056 -0.896,-1.696 -1.92,-1.696 -1.056,0 -2.016,0.704 -2.016,2.272 0,2.368 2.208,3.616 4.8,3.616 4.896,0 5.952,-4.544 5.952,-9.92 v -12.48 h 2.976 v -0.512 h -9.664 z m 14.46401,8.256 c -1.056,0 -1.952,0.864 -1.952,1.984 0,1.12 0.896,1.952 1.952,1.952 1.056,0 1.984,-0.832 1.984,-1.952 0,-1.12 -0.928,-1.984 -1.984,-1.984 z m 0,9.952 c -1.056,0 -1.952,0.864 -1.952,1.984 0,1.12 0.896,1.952 1.952,1.952 1.056,0 1.984,-0.832 1.984,-1.952 0,-1.12 -0.928,-1.984 -1.984,-1.984 z m 8.15997,-9.952 c -1.056,0 -1.952,0.864 -1.952,1.984 0,1.12 0.896,1.952 1.952,1.952 1.056,0 1.984,-0.832 1.984,-1.952 0,-1.12 -0.928,-1.984 -1.984,-1.984 z m 0,9.952 c -1.056,0 -1.952,0.864 -1.952,1.984 0,1.12 0.896,1.952 1.952,1.952 1.056,0 1.984,-0.832 1.984,-1.952 0,-1.12 -0.928,-1.984 -1.984,-1.984 z"
           id="path12" /><path
           style="stroke:none"
           d="m 225.27964,617.03951 v 0.512 h 2.976 l -5.728,17.184 -5.408,-17.184 h 2.976 v -0.512 h -9.632 v 0.512 h 2.496 l 2.144,6.336 -3.648,10.848 -5.408,-17.184 h 2.496 v -0.512 h -9.152 v 0.512 h 2.496 l 7.552,22.4 h 0.992 l 5.024,-15.008 5.056,15.008 h 0.992 l 7.456,-22.4 h 1.856 v -0.512 z m 6.81602,0 v 0.512 h 2.976 v 21.376 h -2.976 v 0.512 h 9.664 v -0.512 h -2.976 v -21.376 h 2.976 v -0.512 z m 26.68799,0 v 0.512 h 2.976 v 15.616 h -0.128 l -12.32,-16.128 h -6.08 v 0.512 h 2.976 v 21.376 h -2.976 v 0.512 h 6.72 v -0.512 h -2.976 v -18.624 h 0.128 l 14.656,19.392 h 0.768 v -22.144 h 2.976 v -0.512 z m 17.888,-0.128 c -1.408,0 -2.912,0.128 -4.608,0.128 h -5.28 v 0.512 h 2.976 v 21.376 h -2.976 v 0.512 h 5.28 c 1.696,0 3.136,0.128 4.544,0.128 8.8,0 11.872,-4.832 11.872,-11.36 0,-7.648 -4.224,-11.296 -11.808,-11.296 z m -0.608,22.144 c -0.832,0 -1.728,-0.032 -2.592,-0.064 v -21.504 c 0.864,-0.032 1.856,-0.064 2.624,-0.064 4.992,0 8.224,1.344 8.224,11.136 0,9.088 -2.784,10.496 -8.256,10.496 z m 38.84795,-22.016 v 0.512 h 2.976 l -5.728,17.184 -5.408,-17.184 h 2.976 v -0.512 h -9.632 v 0.512 h 2.496 l 2.144,6.336 -3.648,10.848 -5.408,-17.184 h 2.496 v -0.512 h -9.152 v 0.512 h 2.496 l 7.552,22.4 h 0.992 l 5.024,-15.008 5.056,15.008 h 0.992 l 7.456,-22.4 h 1.856 v -0.512 z m 21.376,21.888 -7.936,-22.4 h -1.28 l -7.744,22.4 h -1.856 v 0.512 h 5.536 v -0.512 h -2.976 l 2.464,-7.168 h 7.264 l 2.464,7.168 h -2.496 v 0.512 h 9.056 v -0.512 z m -13.568,-7.808 3.424,-9.92 3.392,9.92 z m 37.60002,7.616 c -0.224,0.416 -0.64,0.672 -1.088,0.672 -1.728,0 -2.08,-4.672 -2.464,-6.848 -0.64,-3.616 -2.08,-4.096 -4.576,-4.256 v -0.064 c 2.688,-0.384 5.088,-1.952 5.088,-5.632 0,-4.16 -3.072,-5.696 -6.72,-5.696 -1.056,0 -3.808,0.128 -5.44,0.128 h -5.28 v 0.512 h 2.976 v 21.376 h -2.976 v 0.512 h 9.664 v -0.512 h -2.976 v -10.048 h 3.264 c 2.272,0 2.72,2.336 3.296,5.44 0.576,3.104 1.248,5.632 4.992,5.632 1.408,0 2.144,-0.352 2.56,-1.024 z m -9.824,-10.496 h -3.968 v -10.752 c 0.864,-0.032 2.976,-0.064 3.392,-0.064 2.4,0 3.52,1.248 3.52,5.696 0,4.288 -1.216,5.12 -2.944,5.12 z m 20.76801,-11.328 c -1.408,0 -2.912,0.128 -4.608,0.128 h -5.28 v 0.512 h 2.976 v 21.376 h -2.976 v 0.512 h 5.28 c 1.696,0 3.136,0.128 4.544,0.128 8.8,0 11.872,-4.832 11.872,-11.36 0,-7.648 -4.224,-11.296 -11.808,-11.296 z m -0.608,22.144 c -0.832,0 -1.728,-0.032 -2.592,-0.064 v -21.504 c 0.864,-0.032 1.856,-0.064 2.624,-0.064 4.992,0 8.224,1.344 8.224,11.136 0,9.088 -2.784,10.496 -8.256,10.496 z m 17.75998,-13.248 c -1.056,0 -1.952,0.864 -1.952,1.984 0,1.12 0.896,1.952 1.952,1.952 1.056,0 1.984,-0.832 1.984,-1.952 0,-1.12 -0.928,-1.984 -1.984,-1.984 z m 0,9.952 c -1.056,0 -1.952,0.864 -1.952,1.984 0,1.12 0.896,1.952 1.952,1.952 1.056,0 1.984,-0.832 1.984,-1.952 0,-1.12 -0.928,-1.984 -1.984,-1.984 z m 8.15997,-9.952 c -1.056,0 -1.952,0.864 -1.952,1.984 0,1.12 0.896,1.952 1.952,1.952 1.056,0 1.984,-0.832 1.984,-1.952 0,-1.12 -0.928,-1.984 -1.984,-1.984 z m 0,9.952 c -1.056,0 -1.952,0.864 -1.952,1.984 0,1.12 0.896,1.952 1.952,1.952 1.056,0 1.984,-0.832 1.984,-1.952 0,-1.12 -0.928,-1.984 -1.984,-1.984 z m 27.48797,-7.52 c 0,-7.136 -5.152,-11.712 -11.04,-11.712 -5.888,0 -11.072,4.576 -11.072,11.712 0,7.136 5.184,11.712 11.072,11.712 5.888,0 11.04,-4.576 11.04,-11.712 z m -11.04,11.2 c -4.352,0 -6.912,-3.232 -6.912,-11.168 0,-7.936 2.56,-11.232 6.912,-11.232 4.352,0 6.88,3.264 6.88,11.2 0,7.936 -2.528,11.2 -6.88,11.2 z m 32.992,-0.704 c -0.224,0.416 -0.64,0.672 -1.088,0.672 -1.728,0 -2.08,-4.672 -2.464,-6.848 -0.64,-3.616 -2.08,-4.096 -4.576,-4.256 v -0.064 c 2.688,-0.384 5.088,-1.952 5.088,-5.632 0,-4.16 -3.072,-5.696 -6.72,-5.696 -1.056,0 -3.808,0.128 -5.44,0.128 h -5.28 v 0.512 h 2.976 v 21.376 h -2.976 v 0.512 h 9.664 v -0.512 h -2.976 v -10.048 h 3.264 c 2.272,0 2.72,2.336 3.296,5.44 0.576,3.104 1.248,5.632 4.992,5.632 1.408,0 2.144,-0.352 2.56,-1.024 z m -9.824,-10.496 h -3.968 v -10.752 c 0.864,-0.032 2.976,-0.064 3.392,-0.064 2.4,0 3.52,1.248 3.52,5.696 0,4.288 -1.216,5.12 -2.944,5.12 z m 10.88001,-11.2 v 0.512 h 2.976 v 21.376 h -2.976 v 0.512 h 9.664 v -0.512 h -2.976 v -21.376 h 2.976 v -0.512 z m 26.68798,0 v 0.512 h 2.976 v 15.616 h -0.128 l -12.32,-16.128 h -6.08 v 0.512 h 2.976 v 21.376 h -2.976 v 0.512 h 6.72 v -0.512 h -2.976 v -18.624 h 0.128 l 14.656,19.392 h 0.768 v -22.144 h 2.976 v -0.512 z m 10.68799,8.768 c -1.056,0 -1.952,0.864 -1.952,1.984 0,1.12 0.896,1.952 1.952,1.952 1.056,0 1.984,-0.832 1.984,-1.952 0,-1.12 -0.928,-1.984 -1.984,-1.984 z m 0,9.952 c -1.056,0 -1.952,0.864 -1.952,1.984 0,1.12 0.896,1.952 1.952,1.952 1.056,0 1.984,-0.832 1.984,-1.952 0,-1.12 -0.928,-1.984 -1.984,-1.984 z m 8.15997,-9.952 c -1.056,0 -1.952,0.864 -1.952,1.984 0,1.12 0.896,1.952 1.952,1.952 1.056,0 1.984,-0.832 1.984,-1.952 0,-1.12 -0.928,-1.984 -1.984,-1.984 z m 0,9.952 c -1.056,0 -1.952,0.864 -1.952,1.984 0,1.12 0.896,1.952 1.952,1.952 1.056,0 1.984,-0.832 1.984,-1.952 0,-1.12 -0.928,-1.984 -1.984,-1.984 z m 20.38398,-18.72 v 0.512 h 2.976 v 15.616 h -0.128 l -12.32,-16.128 h -6.08 v 0.512 h 2.976 v 21.376 h -2.976 v 0.512 h 6.72 v -0.512 h -2.976 v -18.624 h 0.128 l 14.656,19.392 h 0.768 v -22.144 h 2.976 v -0.512 z m 8,0 v 0.512 h 2.976 v 21.376 h -2.976 v 0.512 h 9.664 v -0.512 h -2.976 v -21.376 h 2.976 v -0.512 z m 32.70398,12.992 h -8.448 v 0.512 h 3.744 c -0.064,6.592 -2.08,8.896 -5.568,8.896 -4.16,0 -7.136,-3.36 -7.136,-11.456 0,-7.84 2.816,-10.944 7.008,-10.944 4.032,0 6.528,2.88 6.912,6.4 h 0.32 v -6.4 h -0.512 c -0.16,0.544 -0.512,0.832 -1.152,0.832 -1.376,0 -2.08,-1.344 -5.408,-1.344 -6.272,0 -11.328,4.8 -11.328,11.84 0,7.04 5.088,11.584 10.752,11.584 3.968,0 6.048,-2.304 7.424,-2.304 0.64,0 0.896,0.512 1.12,0.928 h 0.512 v -8.032 h 1.76 z m 24.96003,-12.48 v -0.512 h -9.344 v 0.512 h 2.656 v 10.112 h -10.304 v -10.112 h 2.656 v -0.512 h -9.344 v 0.512 h 2.976 v 21.376 h -2.976 v 0.512 h 9.344 v -0.512 h -2.656 v -10.624 h 10.304 v 10.624 h -2.656 v 0.512 h 9.344 v -0.512 h -2.976 v -21.376 z m 21.69597,-0.512 h -19.776 v 4.928 h 0.384 c 0.512,-2.464 1.44,-4.416 6.08,-4.416 h 1.568 v 21.376 h -2.976 v 0.512 h 9.664 v -0.512 h -2.976 v -21.376 h 1.568 c 4.64,0 5.568,1.952 6.08,4.416 h 0.384 z m 9.75998,22.912 c 5.152,0 8.32,-3.104 8.32,-6.976 0,-4.672 -4.576,-6.144 -7.008,-7.104 -4.16,-1.632 -5.6,-2.848 -5.6,-5.056 0,-2.368 1.664,-3.776 4.544,-3.776 3.488,0 5.28,2.176 5.76,5.28 h 0.384 v -5.28 h -0.512 c 0,0.224 -0.224,0.512 -0.768,0.512 -1.376,0 -2.528,-1.024 -5.248,-1.024 -4.416,0 -6.88,2.56 -6.88,5.792 0,3.488 2.528,5.312 6.272,6.848 4,1.632 6.176,2.816 6.176,5.888 0,2.368 -1.312,4.384 -5.504,4.384 -3.808,0 -6.336,-1.696 -6.304,-7.04 h -0.384 l -0.384,7.04 h 0.512 c 0.032,-0.352 0.32,-0.672 0.832,-0.672 0.992,0 2.592,1.184 5.792,1.184 z m 27.64796,-7.552 c -0.128,3.2 -1.12,6.528 -6.08,6.528 h -5.184 v -10.688 h 3.072 c 2.272,0 2.816,2.368 3.136,4.704 h 0.384 v -10.016 h -0.384 c -0.32,2.336 -0.896,4.672 -3.136,4.672 h -3.072 v -10.048 h 4.32 c 4.96,0 5.952,2.592 6.08,4.416 h 0.384 v -4.928 h -17.472 v 0.512 h 2.976 v 21.376 h -2.976 v 0.512 h 18.336 v -7.04 z m 20.70398,6.528 -7.936,-22.4 h -1.28 l -7.744,22.4 h -1.856 v 0.512 h 5.536 v -0.512 h -2.976 l 2.464,-7.168 h 7.264 l 2.464,7.168 h -2.496 v 0.512 h 9.056 v -0.512 z m -13.568,-7.808 3.424,-9.92 3.392,9.92 z m 20.44802,-5.312 c -1.056,0 -1.952,0.864 -1.952,1.984 0,1.12 0.896,1.952 1.952,1.952 1.056,0 1.984,-0.832 1.984,-1.952 0,-1.12 -0.928,-1.984 -1.984,-1.984 z m 0,9.952 c -1.056,0 -1.952,0.864 -1.952,1.984 0,1.12 0.896,1.952 1.952,1.952 1.056,0 1.984,-0.832 1.984,-1.952 0,-1.12 -0.928,-1.984 -1.984,-1.984 z m 8.15998,-9.952 c -1.056,0 -1.952,0.864 -1.952,1.984 0,1.12 0.896,1.952 1.952,1.952 1.056,0 1.984,-0.832 1.984,-1.952 0,-1.12 -0.928,-1.984 -1.984,-1.984 z m 0,9.952 c -1.056,0 -1.952,0.864 -1.952,1.984 0,1.12 0.896,1.952 1.952,1.952 1.056,0 1.984,-0.832 1.984,-1.952 0,-1.12 -0.928,-1.984 -1.984,-1.984 z m 22.78397,-3.36 c -0.128,3.2 -1.12,6.528 -6.08,6.528 h -5.184 v -10.688 h 3.072 c 2.272,0 2.816,2.368 3.136,4.704 h 0.384 v -10.016 h -0.384 c -0.32,2.336 -0.896,4.672 -3.136,4.672 h -3.072 v -10.048 h 4.32 c 4.96,0 5.952,2.592 6.08,4.416 h 0.384 v -4.928 h -17.472 v 0.512 h 2.976 v 21.376 h -2.976 v 0.512 h 18.336 v -7.04 z m 25.11995,-4.16 c 0,-7.136 -5.152,-11.712 -11.04,-11.712 -5.888,0 -11.072,4.576 -11.072,11.712 0,7.136 5.184,11.712 11.072,11.712 5.888,0 11.04,-4.576 11.04,-11.712 z m -11.04,11.2 c -4.352,0 -6.912,-3.232 -6.912,-11.168 0,-7.936 2.56,-11.232 6.912,-11.232 4.352,0 6.88,3.264 6.88,11.2 0,7.936 -2.528,11.2 -6.88,11.2 z m 28.064,-22.4 v 0.512 h 2.976 v 15.616 h -0.128 l -12.32,-16.128 h -6.08 v 0.512 h 2.976 v 21.376 h -2.976 v 0.512 h 6.72 v -0.512 h -2.976 v -18.624 h 0.128 l 14.656,19.392 h 0.768 v -22.144 h 2.976 v -0.512 z m 16.16,22.912 c 5.152,0 8.32,-3.104 8.32,-6.976 0,-4.672 -4.576,-6.144 -7.008,-7.104 -4.16,-1.632 -5.6,-2.848 -5.6,-5.056 0,-2.368 1.664,-3.776 4.544,-3.776 3.488,0 5.28,2.176 5.76,5.28 h 0.384 v -5.28 h -0.512 c 0,0.224 -0.224,0.512 -0.768,0.512 -1.376,0 -2.528,-1.024 -5.248,-1.024 -4.416,0 -6.88,2.56 -6.88,5.792 0,3.488 2.528,5.312 6.272,6.848 4,1.632 6.176,2.816 6.176,5.888 0,2.368 -1.312,4.384 -5.504,4.384 -3.808,0 -6.336,-1.696 -6.304,-7.04 h -0.384 l -0.384,7.04 h 0.512 c 0.032,-0.352 0.32,-0.672 0.832,-0.672 0.992,0 2.592,1.184 5.792,1.184 z"
           id="path13" /></g></g></g></svg>
